<?xml version="1.0" encoding="UTF-8" standalone="no"?>
<svg
   version="1.1"
   id="Layer_1"
   x="0px"
   y="0px"
   width="96"
   height="96"
   viewBox="0 0 96 96"
   xml:space="preserve"
   sodipodi:docname="tab-16.svg"
   inkscape:version="1.2.2 (b0a8486, 2022-12-01)"
   xmlns:inkscape="http://www.inkscape.org/namespaces/inkscape"
   xmlns:sodipodi="http://sodipodi.sourceforge.net/DTD/sodipodi-0.dtd"
   xmlns="http://www.w3.org/2000/svg"
   xmlns:svg="http://www.w3.org/2000/svg"><defs
   id="defs24" /><sodipodi:namedview
   id="namedview22"
   pagecolor="#ffffff"
   bordercolor="#666666"
   borderopacity="1.0"
   inkscape:showpageshadow="2"
   inkscape:pageopacity="0.0"
   inkscape:pagecheckerboard="0"
   inkscape:deskcolor="#d1d1d1"
   showgrid="false"
   inkscape:zoom="2.6074563"
   inkscape:cx="26.270815"
   inkscape:cy="18.408746"
   inkscape:window-width="1503"
   inkscape:window-height="860"
   inkscape:window-x="437"
   inkscape:window-y="171"
   inkscape:window-maximized="0"
   inkscape:current-layer="Layer_1" />
<style type="text/css">
#g207 {
  fill: #000000;
}
@media (prefers-color-scheme: dark) {
  #g207 {
    fill: #cccccc;
  }
}
</style>
<g
   id="g207"
   transform="matrix(0.48,0,0,0.48,0,0.40976)"><g
     id="g15"
     transform="translate(0.5)">
	<path
   d="m 101.348,99.365 c -0.745,-1.062 -1.697,-1.897 -2.854,-2.507 -1.157,-0.61 -2.558,-0.915 -4.205,-0.915 -1.529,0 -2.862,0.277 -3.999,0.826 -1.138,0.551 -2.088,1.307 -2.852,2.271 -0.766,0.963 -1.334,2.113 -1.706,3.449 -0.374,1.336 -0.56,2.771 -0.56,4.303 0,1.73 0.177,3.305 0.529,4.719 0.354,1.414 0.912,2.625 1.677,3.627 0.765,1.002 1.744,1.779 2.94,2.328 1.196,0.551 2.617,0.826 4.264,0.826 1.49,0 2.794,-0.305 3.911,-0.914 1.118,-0.609 2.039,-1.414 2.765,-2.416 0.727,-1.004 1.273,-2.154 1.647,-3.451 0.372,-1.297 0.559,-2.635 0.559,-4.01 0,-1.572 -0.167,-3.057 -0.5,-4.451 -0.333,-1.397 -0.872,-2.625 -1.616,-3.685 z"
   id="path9" />
	<path
   d="m 59.532,96.061 c -3.098,0 -5.411,1.052 -6.939,3.156 -1.53,2.103 -2.294,4.923 -2.294,8.46 0,1.377 0.118,2.703 0.353,3.98 0.236,1.277 0.627,2.408 1.176,3.391 0.549,0.982 1.274,1.77 2.177,2.359 0.901,0.59 2.019,0.885 3.352,0.885 1.646,0 3.195,-0.432 4.646,-1.297 1.45,-0.865 2.862,-2.123 4.235,-3.775 V 97.301 c -0.903,-0.433 -1.903,-0.748 -3,-0.945 -1.099,-0.196 -2.335,-0.295 -3.706,-0.295 z"
   id="path11" />
	<path
   d="m 189.212,121.841 c -1.991,-0.271 -4.347,-1.076 -5.248,-3.338 -2.553,-6.164 -20.2,-45.659 -20.2,-45.659 0,0 -2.318,-5.681 -9.695,-5.681 H 45.01 c -7.611,0 -9.698,5.681 -9.698,5.681 0,0 -17.396,39.929 -20.2,45.659 -0.904,2.262 -3.256,3.066 -5.248,3.338 H -0.5 v 12.327 h 200 V 121.841 Z M 36.507,121.614 c -0.765,0.764 -1.696,1.146 -2.793,1.146 -1.098,0 -2.029,-0.383 -2.793,-1.146 -0.765,-0.764 -1.146,-1.713 -1.146,-2.852 0,-1.059 0.382,-1.979 1.146,-2.766 0.764,-0.783 1.696,-1.176 2.793,-1.176 1.097,0 2.029,0.393 2.793,1.176 0.765,0.787 1.147,1.707 1.147,2.766 10e-4,1.139 -0.382,2.089 -1.147,2.852 z m 35.316,0.5 h -4.057 l -0.707,-4.41 c -1.373,1.49 -2.932,2.715 -4.676,3.676 -1.744,0.961 -3.793,1.439 -6.145,1.439 -2.157,0 -3.991,-0.4 -5.5,-1.205 -1.51,-0.803 -2.735,-1.883 -3.676,-3.234 -0.94,-1.352 -1.627,-2.92 -2.059,-4.705 -0.432,-1.783 -0.647,-3.656 -0.647,-5.615 0,-2.314 0.324,-4.47 0.971,-6.47 0.647,-2 1.617,-3.734 2.911,-5.205 1.294,-1.471 2.92,-2.626 4.881,-3.471 1.96,-0.842 4.273,-1.264 6.94,-1.264 1.137,0 2.254,0.049 3.352,0.147 1.098,0.098 2.039,0.226 2.824,0.382 V 78.006 h 5.586 v 44.108 z m 36.522,-9.056 c -0.704,1.961 -1.725,3.668 -3.058,5.115 -1.333,1.451 -2.95,2.588 -4.853,3.412 -1.901,0.824 -4.048,1.234 -6.439,1.234 -2.469,0 -4.626,-0.381 -6.469,-1.146 -1.843,-0.764 -3.381,-1.822 -4.616,-3.176 -1.235,-1.352 -2.157,-2.969 -2.765,-4.852 -0.608,-1.883 -0.912,-3.941 -0.912,-6.176 0,-2.352 0.343,-4.508 1.03,-6.468 0.685,-1.961 1.676,-3.656 2.97,-5.088 1.293,-1.43 2.901,-2.538 4.822,-3.323 1.921,-0.783 4.118,-1.176 6.587,-1.176 2.392,0 4.5,0.373 6.324,1.117 1.823,0.745 3.36,1.794 4.616,3.146 1.254,1.352 2.205,2.969 2.853,4.852 0.646,1.882 0.97,3.96 0.97,6.233 -0.001,2.237 -0.353,4.335 -1.06,6.296 z m 51.461,9.056 h -5.528 v -17.818 c 0,-1.294 -0.06,-2.461 -0.177,-3.5 -0.117,-1.038 -0.352,-1.911 -0.706,-2.618 -0.353,-0.705 -0.862,-1.254 -1.528,-1.646 -0.667,-0.391 -1.55,-0.588 -2.646,-0.588 -0.863,0 -1.646,0.128 -2.353,0.383 -0.706,0.256 -1.374,0.607 -1.999,1.059 -0.629,0.451 -1.246,0.99 -1.854,1.617 -0.608,0.628 -1.245,1.333 -1.911,2.118 v 20.994 h -5.588 v -17.818 c 0,-1.294 -0.049,-2.461 -0.146,-3.5 -0.1,-1.038 -0.324,-1.911 -0.677,-2.618 -0.354,-0.705 -0.865,-1.254 -1.529,-1.646 -0.667,-0.391 -1.569,-0.588 -2.707,-0.588 -0.862,0 -1.636,0.118 -2.321,0.354 -0.687,0.234 -1.354,0.579 -2,1.029 -0.646,0.451 -1.275,0.99 -1.883,1.617 -0.607,0.628 -1.244,1.353 -1.911,2.177 v 20.994 h -5.588 V 92.121 h 4.234 l 0.766,4.352 c 1.529,-1.685 3.019,-2.95 4.47,-3.793 1.45,-0.843 3.214,-1.264 5.292,-1.264 2.118,0 3.902,0.421 5.354,1.264 1.448,0.843 2.547,2.264 3.293,4.264 1.606,-1.92 3.154,-3.323 4.645,-4.205 1.49,-0.882 3.294,-1.323 5.411,-1.323 1.883,0 3.441,0.304 4.676,0.911 1.234,0.608 2.215,1.452 2.941,2.529 0.724,1.079 1.234,2.343 1.528,3.792 0.296,1.452 0.441,3.021 0.441,4.706 v 18.76 z"
   id="path13" />
</g><polygon
     points="179.155,23.082 51.145,23.082 51.145,5.813 8.378,30.505 51.145,55.196 51.145,38.083 179.155,38.083 "
     id="polygon17" /><polygon
     points="146.395,195.309 189.161,170.616 146.395,145.925 146.395,163.038 18.383,163.038 18.383,178.039 146.395,178.039 "
     id="polygon19" /></g>
</svg>
